<mxfile host="app.diagrams.net" agent="Mozilla/5.0 (Windows NT 10.0; Win64; x64) AppleWebKit/537.36 (KHTML, like Gecko) Chrome/139.0.0.0 Safari/537.36" version="28.1.0">
  <diagram name="Page-1" id="ibeJW2C2m-3T_-LQz87g">
    <mxGraphModel dx="1603" dy="811" grid="1" gridSize="10" guides="1" tooltips="1" connect="1" arrows="1" fold="1" page="1" pageScale="1" pageWidth="850" pageHeight="1100" math="0" shadow="0">
      <root>
        <mxCell id="0" />
        <mxCell id="1" parent="0" />
        <mxCell id="OkAo7m7to5UiohNfxP2K-16" style="edgeStyle=orthogonalEdgeStyle;rounded=0;orthogonalLoop=1;jettySize=auto;html=1;exitX=1;exitY=0.5;exitDx=0;exitDy=0;entryX=0.5;entryY=0;entryDx=0;entryDy=0;endArrow=open;endFill=0;endSize=12;strokeWidth=2;" edge="1" parent="1" source="OkAo7m7to5UiohNfxP2K-1" target="OkAo7m7to5UiohNfxP2K-4">
          <mxGeometry relative="1" as="geometry" />
        </mxCell>
        <mxCell id="OkAo7m7to5UiohNfxP2K-1" value="CryoBot" style="swimlane;whiteSpace=wrap;html=1;" vertex="1" parent="1">
          <mxGeometry x="280" y="280" width="200" height="100" as="geometry" />
        </mxCell>
        <mxCell id="OkAo7m7to5UiohNfxP2K-30" style="edgeStyle=orthogonalEdgeStyle;rounded=0;orthogonalLoop=1;jettySize=auto;html=1;exitX=1;exitY=0;exitDx=0;exitDy=0;endArrow=none;endFill=0;endSize=12;strokeWidth=2;dashed=1;" edge="1" parent="OkAo7m7to5UiohNfxP2K-1" source="OkAo7m7to5UiohNfxP2K-2">
          <mxGeometry relative="1" as="geometry">
            <mxPoint x="410" y="-20" as="targetPoint" />
            <Array as="points">
              <mxPoint x="285" y="20" />
              <mxPoint x="285" y="-20" />
              <mxPoint x="370" y="-20" />
            </Array>
          </mxGeometry>
        </mxCell>
        <mxCell id="OkAo7m7to5UiohNfxP2K-2" value="" style="rounded=0;whiteSpace=wrap;html=1;align=left;" vertex="1" parent="OkAo7m7to5UiohNfxP2K-1">
          <mxGeometry y="20" width="200" height="40" as="geometry" />
        </mxCell>
        <mxCell id="OkAo7m7to5UiohNfxP2K-3" value="" style="rounded=0;whiteSpace=wrap;html=1;align=left;" vertex="1" parent="OkAo7m7to5UiohNfxP2K-1">
          <mxGeometry y="60" width="200" height="40" as="geometry" />
        </mxCell>
        <mxCell id="OkAo7m7to5UiohNfxP2K-26" style="edgeStyle=orthogonalEdgeStyle;rounded=0;orthogonalLoop=1;jettySize=auto;html=1;exitX=0.75;exitY=0;exitDx=0;exitDy=0;entryX=0.5;entryY=1;entryDx=0;entryDy=0;endArrow=open;endFill=0;endSize=12;strokeWidth=2;dashed=1;" edge="1" parent="1" source="OkAo7m7to5UiohNfxP2K-4" target="OkAo7m7to5UiohNfxP2K-20">
          <mxGeometry relative="1" as="geometry" />
        </mxCell>
        <mxCell id="OkAo7m7to5UiohNfxP2K-4" value="Gankster" style="swimlane;whiteSpace=wrap;html=1;" vertex="1" parent="1">
          <mxGeometry x="540" y="420" width="200" height="100" as="geometry" />
        </mxCell>
        <mxCell id="OkAo7m7to5UiohNfxP2K-5" value="" style="rounded=0;whiteSpace=wrap;html=1;align=left;" vertex="1" parent="OkAo7m7to5UiohNfxP2K-4">
          <mxGeometry y="20" width="200" height="40" as="geometry" />
        </mxCell>
        <mxCell id="OkAo7m7to5UiohNfxP2K-6" value="" style="rounded=0;whiteSpace=wrap;html=1;align=left;" vertex="1" parent="OkAo7m7to5UiohNfxP2K-4">
          <mxGeometry y="60" width="200" height="40" as="geometry" />
        </mxCell>
        <mxCell id="OkAo7m7to5UiohNfxP2K-27" style="edgeStyle=orthogonalEdgeStyle;rounded=0;orthogonalLoop=1;jettySize=auto;html=1;exitX=1;exitY=0.5;exitDx=0;exitDy=0;endArrow=none;endFill=0;endSize=12;strokeWidth=2;dashed=1;" edge="1" parent="1" source="OkAo7m7to5UiohNfxP2K-8">
          <mxGeometry relative="1" as="geometry">
            <mxPoint x="690" y="260" as="targetPoint" />
            <Array as="points">
              <mxPoint x="1030" y="560" />
              <mxPoint x="1030" y="260" />
            </Array>
          </mxGeometry>
        </mxCell>
        <mxCell id="OkAo7m7to5UiohNfxP2K-8" value="Browser" style="swimlane;whiteSpace=wrap;html=1;" vertex="1" parent="1">
          <mxGeometry x="790" y="520" width="200" height="100" as="geometry" />
        </mxCell>
        <mxCell id="OkAo7m7to5UiohNfxP2K-9" value="" style="rounded=0;whiteSpace=wrap;html=1;align=left;" vertex="1" parent="OkAo7m7to5UiohNfxP2K-8">
          <mxGeometry y="20" width="200" height="40" as="geometry" />
        </mxCell>
        <mxCell id="OkAo7m7to5UiohNfxP2K-10" value="" style="rounded=0;whiteSpace=wrap;html=1;align=left;" vertex="1" parent="OkAo7m7to5UiohNfxP2K-8">
          <mxGeometry y="60" width="200" height="40" as="geometry" />
        </mxCell>
        <mxCell id="OkAo7m7to5UiohNfxP2K-28" style="edgeStyle=orthogonalEdgeStyle;rounded=0;orthogonalLoop=1;jettySize=auto;html=1;exitX=1;exitY=0.5;exitDx=0;exitDy=0;endArrow=none;endFill=0;endSize=12;strokeWidth=2;dashed=1;" edge="1" parent="1" source="OkAo7m7to5UiohNfxP2K-11">
          <mxGeometry relative="1" as="geometry">
            <mxPoint x="1030" y="370" as="targetPoint" />
          </mxGeometry>
        </mxCell>
        <mxCell id="OkAo7m7to5UiohNfxP2K-11" value="GanksterAPI" style="swimlane;whiteSpace=wrap;html=1;" vertex="1" parent="1">
          <mxGeometry x="790" y="320" width="200" height="100" as="geometry" />
        </mxCell>
        <mxCell id="OkAo7m7to5UiohNfxP2K-12" value="" style="rounded=0;whiteSpace=wrap;html=1;align=left;" vertex="1" parent="OkAo7m7to5UiohNfxP2K-11">
          <mxGeometry y="20" width="200" height="40" as="geometry" />
        </mxCell>
        <mxCell id="OkAo7m7to5UiohNfxP2K-13" value="" style="rounded=0;whiteSpace=wrap;html=1;align=left;" vertex="1" parent="OkAo7m7to5UiohNfxP2K-11">
          <mxGeometry y="60" width="200" height="40" as="geometry" />
        </mxCell>
        <mxCell id="OkAo7m7to5UiohNfxP2K-17" value="RiotAPI" style="swimlane;whiteSpace=wrap;html=1;" vertex="1" parent="1">
          <mxGeometry x="70" y="470" width="200" height="100" as="geometry" />
        </mxCell>
        <mxCell id="OkAo7m7to5UiohNfxP2K-18" value="" style="rounded=0;whiteSpace=wrap;html=1;align=left;" vertex="1" parent="OkAo7m7to5UiohNfxP2K-17">
          <mxGeometry y="20" width="200" height="40" as="geometry" />
        </mxCell>
        <mxCell id="OkAo7m7to5UiohNfxP2K-19" value="" style="rounded=0;whiteSpace=wrap;html=1;align=left;" vertex="1" parent="OkAo7m7to5UiohNfxP2K-17">
          <mxGeometry y="60" width="200" height="40" as="geometry" />
        </mxCell>
        <mxCell id="OkAo7m7to5UiohNfxP2K-20" value="Scrim Dataclasses" style="swimlane;whiteSpace=wrap;html=1;" vertex="1" parent="1">
          <mxGeometry x="590" y="90" width="200" height="100" as="geometry" />
        </mxCell>
        <mxCell id="OkAo7m7to5UiohNfxP2K-21" value="&lt;span style=&quot;background-color: transparent; color: light-dark(rgb(0, 0, 0), rgb(255, 255, 255));&quot;&gt;- Scrim&lt;/span&gt;&lt;div&gt;&lt;span style=&quot;background-color: transparent; color: light-dark(rgb(0, 0, 0), rgb(255, 255, 255));&quot;&gt;- Team&lt;/span&gt;&lt;/div&gt;&lt;div&gt;&lt;span style=&quot;background-color: transparent; color: light-dark(rgb(0, 0, 0), rgb(255, 255, 255));&quot;&gt;- Reputation&lt;/span&gt;&lt;/div&gt;&lt;div&gt;&lt;span style=&quot;background-color: transparent; color: light-dark(rgb(0, 0, 0), rgb(255, 255, 255));&quot;&gt;- Player&lt;/span&gt;&lt;/div&gt;&lt;div&gt;&lt;span style=&quot;background-color: transparent; color: light-dark(rgb(0, 0, 0), rgb(255, 255, 255));&quot;&gt;- Rank&lt;/span&gt;&lt;/div&gt;" style="rounded=0;whiteSpace=wrap;html=1;align=left;" vertex="1" parent="OkAo7m7to5UiohNfxP2K-20">
          <mxGeometry y="20" width="200" height="80" as="geometry" />
        </mxCell>
        <mxCell id="OkAo7m7to5UiohNfxP2K-34" style="edgeStyle=orthogonalEdgeStyle;rounded=0;orthogonalLoop=1;jettySize=auto;html=1;exitX=1;exitY=0.25;exitDx=0;exitDy=0;entryX=0.5;entryY=0;entryDx=0;entryDy=0;strokeWidth=2;endSize=12;endArrow=open;endFill=0;" edge="1" parent="1" source="OkAo7m7to5UiohNfxP2K-6" target="OkAo7m7to5UiohNfxP2K-8">
          <mxGeometry relative="1" as="geometry">
            <mxPoint x="860" y="489.8571428571429" as="targetPoint" />
          </mxGeometry>
        </mxCell>
        <mxCell id="OkAo7m7to5UiohNfxP2K-33" style="edgeStyle=orthogonalEdgeStyle;rounded=0;orthogonalLoop=1;jettySize=auto;html=1;exitX=1;exitY=0.25;exitDx=0;exitDy=0;entryX=0.5;entryY=1;entryDx=0;entryDy=0;strokeWidth=2;endSize=12;endArrow=open;endFill=0;" edge="1" parent="1" source="OkAo7m7to5UiohNfxP2K-5" target="OkAo7m7to5UiohNfxP2K-13">
          <mxGeometry relative="1" as="geometry">
            <mxPoint x="840" y="449.8571428571429" as="targetPoint" />
          </mxGeometry>
        </mxCell>
        <mxCell id="OkAo7m7to5UiohNfxP2K-41" style="edgeStyle=orthogonalEdgeStyle;rounded=0;orthogonalLoop=1;jettySize=auto;html=1;exitX=0.5;exitY=1;exitDx=0;exitDy=0;strokeWidth=2;dashed=1;endArrow=none;endFill=0;startArrow=open;startFill=0;startSize=12;" edge="1" parent="1" source="OkAo7m7to5UiohNfxP2K-35">
          <mxGeometry relative="1" as="geometry">
            <mxPoint x="220" y="150" as="targetPoint" />
          </mxGeometry>
        </mxCell>
        <mxCell id="OkAo7m7to5UiohNfxP2K-35" value="Helper Functions" style="swimlane;whiteSpace=wrap;html=1;" vertex="1" parent="1">
          <mxGeometry x="120" y="40" width="200" height="60" as="geometry" />
        </mxCell>
        <mxCell id="OkAo7m7to5UiohNfxP2K-36" value="- debugPrint(text: String)&lt;div&gt;- getVariable(varName: String)&lt;/div&gt;" style="rounded=0;whiteSpace=wrap;html=1;align=left;" vertex="1" parent="OkAo7m7to5UiohNfxP2K-35">
          <mxGeometry y="20" width="200" height="40" as="geometry" />
        </mxCell>
        <mxCell id="OkAo7m7to5UiohNfxP2K-38" value="Vertical Container" style="swimlane;whiteSpace=wrap;html=1;" vertex="1" parent="1">
          <mxGeometry x="250" y="650" width="200" height="100" as="geometry" />
        </mxCell>
        <mxCell id="OkAo7m7to5UiohNfxP2K-39" value="" style="rounded=0;whiteSpace=wrap;html=1;align=left;" vertex="1" parent="OkAo7m7to5UiohNfxP2K-38">
          <mxGeometry y="20" width="200" height="40" as="geometry" />
        </mxCell>
        <mxCell id="OkAo7m7to5UiohNfxP2K-40" value="" style="rounded=0;whiteSpace=wrap;html=1;align=left;" vertex="1" parent="OkAo7m7to5UiohNfxP2K-38">
          <mxGeometry y="60" width="200" height="40" as="geometry" />
        </mxCell>
      </root>
    </mxGraphModel>
  </diagram>
</mxfile>
